# xmcd
#
# Track frame offsets:
#	150
#	14570
#	35195
#	50617
#	68435
#	85207
#	103317
#	116690
#	133970
#	147142
#	162232
#	177390
#	191235
#	203470
#	221942
#	236135
#	251470
#
# Disc length: 3559
#
# Revision: 2
# Processed by: cddbd v1.5.1PL0 Copyright (c) Steve Scherf et al.
# Submitted via: Axialis_AX_CDPlayer 2.6
# Normalized: r0:DSETVAR1,TDELIM( - );r1:TSWAP
#
DISCID=070de511
DTITLE=Various Artist - Today's Most Requested Country Love Songs '95
DYEAR=1900
DGENRE=
TTITLE0=Radney Foster - Just Call Me Lonesome
TTITLE1=Tanya Tucker - You Just Watch Me
TTITLE2=Sammy Kershaw - I Can't Reach Her Anymore
TTITLE3=Farmer's Daughter - I Wanna Hold You
TTITLE4=Gary Fjellgaard - What About Love
TTITLE5=Amber Dawn Fleury - Lila's Child
TTITLE6=Coda The West - Coming Soon To A Heart Near You
TTITLE7=Marty Stuart - Love And Luck
TTITLE8=Prairie Oyster - Here's To You
TTITLE9=Billy Dean - If There Hadn't Been You
TTITLE10=McBride and The Ride - Can I Count On You
TTITLE11=Lisa Brokop - Give Me A Ring Sometime
TTITLE12=The Desert Dolphins - Here's What They Say
TTITLE13=Joel Feeney - Tears Don't Lie
TTITLE14=Joan Kennedy - You Said It
TTITLE15=Mark Chesnutt - I Just Wanted You To Know
TTITLE16=Toby Keith - Wish I Didn't Know Now
EXTD=
EXTT0=
EXTT1=
EXTT2=
EXTT3=
EXTT4=
EXTT5=
EXTT6=
EXTT7=
EXTT8=
EXTT9=
EXTT10=
EXTT11=
EXTT12=
EXTT13=
EXTT14=
EXTT15=
EXTT16=
PLAYORDER=
